<svg version="1.1" xmlns="http://www.w3.org/2000/svg" xmlns:xlink="http://www.w3.org/1999/xlink" x="0px" y="0px"
	 width="100%" height="100%" preserveAspectRatio="yMidxMid meet" viewBox="0 0 405 540"
	 xml:space="preserve">
<!-- viewBox="0 -70 405 540" for crest version -->

<g id="helmet">
	<linearGradient id="gorget_top_grad" gradientUnits="userSpaceOnUse" x1="160" y1="0" x2="245" y2="0">
		<stop  offset="0" style="stop-color:#A9A9A9"/>
		<stop  offset="0.4" style="stop-color:#DEDEDE"/>
		<stop  offset="0.5" style="stop-color:#E8E5E5"/>
		<stop  offset="0.6" style="stop-color:#DEDEDE"/>
		<stop  offset="1" style="stop-color:#A9A9A9"/>
	</linearGradient>
	<polygon fill="#565655" stroke="#000000" stroke-width="2" points="229.191,42.94 202.816,50.94 176.191,42.94 176.191,39.94 
		202.941,42.94 229.191,39.94 	"/>
	<path fill="url(#gorget_top_grad)" stroke="#000000" stroke-width="2" d="M221.954,11.355c8.247,6.555,13.615,17.013,13.615,27.958
		c-3.866,0.988-12.948,2.078-20.956,2.752c-4.748,0.4-9.118,1.703-11.801,1.703c-2.259,0-6.016-1.264-10.228-1.605
		c-8.496-0.688-18.851-1.886-22.53-2.85c0-10.93,5.354-21.376,13.582-27.932c5.391-4.295,16.29-10.066,19.176-10.066
		C206.087,1.315,216.57,7.076,221.954,11.355z"/>
</g>
<g id="color_2_inner">
	<g id="middle_cloth">
		<linearGradient id="mantling_grad" gradientUnits="userSpaceOnUse" x1="100" y1="0" x2="300" y2="0">
			<stop  offset="0" style="stop-color:#000000;stop-opacity:0;" />
			<stop  offset=".25" style="stop-color:#000000;stop-opacity:.1;"/>
			<stop  offset=".5" style="stop-color:#000000;stop-opacity:.2;"/>
			<stop  offset=".75" style="stop-color:#000000;stop-opacity:.1;"/>
			<stop  offset="1" style="stop-color:#000000;stop-opacity:0;"/>
		</linearGradient>
		<linearGradient id="mantling_left_grad1" gradientUnits="userSpaceOnUse" x1="50" y1="180" x2="90" y2="170">
			<stop  offset="0" style="stop-color:#000000;stop-opacity:0;" />
			<stop  offset=".6" style="stop-color:#000000;stop-opacity:.15;"/>
			<stop  offset="1" style="stop-color:#000000;stop-opacity:.4;"/>
		</linearGradient>
		<linearGradient id="mantling_left_grad2" gradientUnits="userSpaceOnUse" x1="30" y1="230" x2="60" y2="220">
			<stop  offset="0" style="stop-color:#000000;stop-opacity:0;" />
			<stop  offset=".5" style="stop-color:#000000;stop-opacity:.12;"/>
			<stop  offset="1" style="stop-color:#000000;stop-opacity:.3;"/>
		</linearGradient>
		<linearGradient id="mantling_right_grad1" gradientUnits="userSpaceOnUse" x1="352" y1="180" x2="312" y2="170">
			<stop  offset="0" style="stop-color:#000000;stop-opacity:0;" />
			<stop  offset=".6" style="stop-color:#000000;stop-opacity:.15;"/>
			<stop  offset="1" style="stop-color:#000000;stop-opacity:.4;"/>
		</linearGradient>
		<linearGradient id="mantling_right_grad2" gradientUnits="userSpaceOnUse" x1="372" y1="230" x2="342" y2="220">
			<stop  offset="0" style="stop-color:#000000;stop-opacity:0;" />
			<stop  offset=".5" style="stop-color:#000000;stop-opacity:.12;"/>
			<stop  offset="1" style="stop-color:#000000;stop-opacity:.3;"/>
		</linearGradient>
		<path fill="#INNER#" stroke="#000000" stroke-width="2" d="M169.066,38.607c0,0,15.751,40.057,12.75,49.333
			c-1.417,6.583-7.75,33.917-14.75,40.583c-0.386,1.799,0.054,2.46-0.66,4.004c-0.43,0.929,2.327,6.996,1.55,10.664
			c-2.556-3.334-5.599-4.699-6.534-3.649c-13.102,14.709-43.022,16.942-52.689,39.314c-4.167-5.667-10.856-15.063-8.227-25.521
			c2.944-4.812,11.084-9.557,17.765-14.948c0.925-0.747-1.955-1.698-5.299-2.301c4.094-2.896,10.649-4.545,11.411-5.353

			c3.951-4.189,5.654-6.046,5.184-12.043c-7.179,5.085-26.301,6.673-42.461,8.4c-8.039-12.4,2.615-32.356,11.308-35.944
			c17.421-8.113,36.431-23.635,40.654-37.456c-12.5,12.5-44.333,32.834-71,31.167s-44.333-19.667-66-3.667
			c-5-12.667,8.667-24,18.667-25c-1.333-11,3.333-24.333,21.333-26c-20,28,10,35,24.333,33.333
			c29.003-3.372,41.333-27.667,39-34.583c-4-7.083-13-13.417-26.334-7.417c-0.333-4.667,2.5-8.667,2.5-8.667

			s11.833-6.333,26.833-1.667c7.265,2.26,19.017,11.451,20.333,6.333c3-11.667,7.667-17.917,14.333-16.261
			c-3.666,9.011,0.125,20.803,7.063,24.754c5.429,2.843,13.129,5.056,20.032,4.02C169.566,34.94,169.066,38.607,169.066,38.607z"/>
		<path fill="url(#mantling_grad)" stroke="#000000" stroke-width="2" d="M169.066,38.607c0,0,15.751,40.057,12.75,49.333
			c-1.417,6.583-7.75,33.917-14.75,40.583c-0.386,1.799,0.054,2.46-0.66,4.004c-0.43,0.929,2.327,6.996,1.55,10.664
			c-2.556-3.334-5.599-4.699-6.534-3.649c-13.102,14.709-43.022,16.942-52.689,39.314c-4.167-5.667-10.856-15.063-8.227-25.521
			c2.944-4.812,11.084-9.557,17.765-14.948c0.925-0.747-1.955-1.698-5.299-2.301c4.094-2.896,10.649-4.545,11.411-5.353

			c3.951-4.189,5.654-6.046,5.184-12.043c-7.179,5.085-26.301,6.673-42.461,8.4c-8.039-12.4,2.615-32.356,11.308-35.944
			c17.421-8.113,36.431-23.635,40.654-37.456c-12.5,12.5-44.333,32.834-71,31.167s-44.333-19.667-66-3.667
			c-5-12.667,8.667-24,18.667-25c-1.333-11,3.333-24.333,21.333-26c-20,28,10,35,24.333,33.333
			c29.003-3.372,41.333-27.667,39-34.583c-4-7.083-13-13.417-26.334-7.417c-0.333-4.667,2.5-8.667,2.5-8.667

			s11.833-6.333,26.833-1.667c7.265,2.26,19.017,11.451,20.333,6.333c3-11.667,7.667-17.917,14.333-16.261
			c-3.666,9.011,0.125,20.803,7.063,24.754c5.429,2.843,13.129,5.056,20.032,4.02C169.566,34.94,169.066,38.607,169.066,38.607z"/>
		<path fill="#INNER#" stroke="#000000" stroke-width="2" d="M63.246,239.895c-12.731,5.626-17.778,16.766-12.966,30.267
			c-8.465-0.744-20.753-8.779-18.379-21.314c0.343-2.771-20.819-1.46-29.154-8.322c6.053-9.587,21.766-15.085,20.349-17.401
			c-7.631-4.123-6.784-22.593,6.339-26.455c0.131,19.436,20.45,29.944,39.991,19.808C70.441,223.275,67.611,233.678,63.246,239.895z
			"/>
		<path fill="url(#mantling_left_grad2)" stroke="#000000" stroke-width="2" d="M63.246,239.895c-12.731,5.626-17.778,16.766-12.966,30.267
			c-8.465-0.744-20.753-8.779-18.379-21.314c0.343-2.771-20.819-1.46-29.154-8.322c6.053-9.587,21.766-15.085,20.349-17.401
			c-7.631-4.123-6.784-22.593,6.339-26.455c0.131,19.436,20.45,29.944,39.991,19.808C70.441,223.275,67.611,233.678,63.246,239.895z
			"/>
		<path fill="#INNER#" stroke="#000000" stroke-width="2" d="M83.566,176.69c-9.75,8.25-27,10.5-30,17.5c-8-4-11.5-5.75-12.875-15.5
			c2.645-7.935,9.919-12.317,18.038-15.604c-2.163-2.812-5.663-3.396-10.746-4.229c10.583-5.417,23.807-0.427,25.612-1.093
			c8.815-3.255,16.721-7.323,19.471-12.573C92.316,158.19,91.681,169.824,83.566,176.69z"/>
		<path fill="url(#mantling_left_grad1)" stroke="#000000" stroke-width="2" 
			d="M83.566,176.69c-9.75,8.25-27,10.5-30,17.5c-8-4-11.5-5.75-12.875-15.5
			c2.645-7.935,9.919-12.317,18.038-15.604c-2.163-2.812-5.663-3.396-10.746-4.229c10.583-5.417,23.807-0.427,25.612-1.093
			c8.815-3.255,16.721-7.323,19.471-12.573C92.316,158.19,91.681,169.824,83.566,176.69z"/>
		<path fill="#INNER#" stroke="#000000" stroke-width="2" d="M235.797,38.941c0,0-15.752,40.057-12.75,49.333
			c1.416,6.583,7.75,33.917,14.75,40.583c0.386,1.799-0.054,2.46,0.66,4.004c0.43,0.929-2.326,6.996-1.55,10.664
			c2.556-3.334,5.599-4.699,6.534-3.649c13.102,14.709,43.021,16.942,52.689,39.314c4.166-5.667,10.856-15.063,8.226-25.521
			c-2.943-4.812-11.084-9.557-17.765-14.948c-0.925-0.747,1.955-1.698,5.299-2.301c-4.094-2.896-10.648-4.545-11.41-5.353
			c-3.951-4.189-5.654-6.046-5.184-12.043c7.18,5.085,26.301,6.673,42.462,8.4c8.038-12.4-2.615-32.356-11.309-35.944
			c-17.421-8.113-36.431-23.635-40.653-37.456c12.5,12.5,44.333,32.834,71,31.167c26.666-1.667,44.333-19.667,66-3.667
			c5-12.667-8.667-24-18.667-25c1.333-11-3.333-24.333-21.333-26c20,28-10,35-24.334,33.333c-29.003-3.372-41.332-27.667-39-34.583
			c4.001-7.083,13.001-13.417,26.334-7.417c0.333-4.667-2.5-8.667-2.5-8.667s-11.833-6.333-26.834-1.667
			c-7.265,2.26-19.017,11.451-20.332,6.333c-3-11.667-7.668-17.917-14.334-16.261c3.666,9.011-0.125,20.803-7.063,24.754
			c-5.429,2.843-13.129,5.056-20.032,4.02C235.297,35.274,235.797,38.941,235.797,38.941z"/>
		<path fill="url(#mantling_grad)" stroke="#000000" stroke-width="2" d="M235.797,38.941c0,0-15.752,40.057-12.75,49.333
			c1.416,6.583,7.75,33.917,14.75,40.583c0.386,1.799-0.054,2.46,0.66,4.004c0.43,0.929-2.326,6.996-1.55,10.664
			c2.556-3.334,5.599-4.699,6.534-3.649c13.102,14.709,43.021,16.942,52.689,39.314c4.166-5.667,10.856-15.063,8.226-25.521
			c-2.943-4.812-11.084-9.557-17.765-14.948c-0.925-0.747,1.955-1.698,5.299-2.301c-4.094-2.896-10.648-4.545-11.41-5.353
			c-3.951-4.189-5.654-6.046-5.184-12.043c7.18,5.085,26.301,6.673,42.462,8.4c8.038-12.4-2.615-32.356-11.309-35.944
			c-17.421-8.113-36.431-23.635-40.653-37.456c12.5,12.5,44.333,32.834,71,31.167c26.666-1.667,44.333-19.667,66-3.667
			c5-12.667-8.667-24-18.667-25c1.333-11-3.333-24.333-21.333-26c20,28-10,35-24.334,33.333c-29.003-3.372-41.332-27.667-39-34.583
			c4.001-7.083,13.001-13.417,26.334-7.417c0.333-4.667-2.5-8.667-2.5-8.667s-11.833-6.333-26.834-1.667
			c-7.265,2.26-19.017,11.451-20.332,6.333c-3-11.667-7.668-17.917-14.334-16.261c3.666,9.011-0.125,20.803-7.063,24.754
			c-5.429,2.843-13.129,5.056-20.032,4.02C235.297,35.274,235.797,38.941,235.797,38.941z"/>
		<path fill="#INNER#" stroke="#000000" stroke-width="2" d="M341.618,240.229c12.731,5.625,17.778,16.766,12.966,30.267
			c8.466-0.743,20.753-8.778,18.38-21.314c-0.344-2.771,20.818-1.46,29.154-8.321c-6.053-9.588-21.766-15.086-20.35-17.401
			c7.632-4.123,6.784-22.593-6.339-26.455c-0.131,19.436-20.45,29.944-39.99,19.808
			C334.421,223.608,337.251,234.011,341.618,240.229z"/>
		<path fill="url(#mantling_right_grad2)" stroke="#000000" stroke-width="2" d="M341.618,240.229c12.731,5.625,17.778,16.766,12.966,30.267
			c8.466-0.743,20.753-8.778,18.38-21.314c-0.344-2.771,20.818-1.46,29.154-8.321c-6.053-9.588-21.766-15.086-20.35-17.401
			c7.632-4.123,6.784-22.593-6.339-26.455c-0.131,19.436-20.45,29.944-39.99,19.808
			C334.421,223.608,337.251,234.011,341.618,240.229z"/>
		<path fill="#INNER#" stroke="#000000" stroke-width="2" d="M321.297,177.024c9.75,8.25,27,10.5,30,17.5c8-4,11.5-5.75,12.875-15.5
			c-2.645-7.935-9.919-12.317-18.038-15.604c2.163-2.812,5.663-3.396,10.746-4.229c-10.583-5.417-23.808-0.427-25.612-1.093
			c-8.815-3.255-16.721-7.323-19.471-12.573C312.547,158.524,313.183,170.157,321.297,177.024z"/>
		<path fill="url(#mantling_right_grad1)" stroke="#000000" stroke-width="2"
			d="M321.297,177.024c9.75,8.25,27,10.5,30,17.5c8-4,11.5-5.75,12.875-15.5
			c-2.645-7.935-9.919-12.317-18.038-15.604c2.163-2.812,5.663-3.396,10.746-4.229c-10.583-5.417-23.808-0.427-25.612-1.093
			c-8.815-3.255-16.721-7.323-19.471-12.573C312.547,158.524,313.183,170.157,321.297,177.024z"/>
	</g>
	<g id="headband_2_">
		<path fill="#INNER#" stroke="#000000" stroke-width="2" d="M182.775,24.118c-0.772,1.385-4.417,0.156-6.459-0.303
			c-2.082-0.467-4.667-3.089-4.667-5.667l0,0c0-2.577,1.729-5.646,4.667-5.667c1.563-0.011,5.336,0.574,5.668,2.016
			C180.816,16.253,182.253,22.503,182.775,24.118z"/>
		<path fill="#INNER#" stroke="#000000" stroke-width="2" d="M223.452,14.696c0.948-1.714,2.179-2.131,4.906-2.214
			c2.75-0.083,5.667,3.089,5.667,5.667c0,0-0.291-1.667,0,0s-0.109,3.913-1.667,4.667c-1.292,0.625-5.417,1.542-6.104,0.566
			L223.452,14.696z"/>
		<path fill="#INNER#" stroke="#000000" stroke-width="2" d="M194.025,15.482c1.208-1.542,5.967-0.624,7.915-0.616
			c2.853,0.012,6.126-0.801,7.313,0.824l2.438,9.313c-0.666,1.813-4.613,0.904-7.249,1.128c-2.017,0.172-8.063,0.497-9.084-1.316
			L194.025,15.482z"/>
	</g>
</g>
<g id="color_1_outer">
	<g id="middle_cloth_1_">
		<linearGradient id="mantling_outer_grad" gradientUnits="userSpaceOnUse" x1="0" y1="60" x2="0" y2="75">
			<stop  offset="0" style="stop-color:#000000;stop-opacity:.4;"/>
			<stop  offset="1" style="stop-color:#000000;stop-opacity:0;"/>
		</linearGradient>
		<path fill="#OUTER#" stroke="#000000" stroke-width="2" d="M55.316,220.69c-1.75-7.25-6.25-6.75-11.5-15.5
			c-6.433-10.721-5.875-20-3.125-26c0.875,8.25,10.718,15.046,17.125,18.25c3,1.5,11.108,6.538,11.608,19.038
			C66.424,220.479,61.066,220.94,55.316,220.69z"/>
		<path fill="#OUTER#" stroke="#000000" stroke-width="2" d="M110.566,80.44c-19.5,2.5-22-2.5-26.75-9.5
			c-4.25,6.75-20.5,4.885-28.25,3c-9.25-2.25-18.25-9.75-19.75-22.75c9,13.25,23.722,13.418,34.986,11.459
			s29.514-12.959,34.514-28.459C100.816,54.69,96.316,69.19,110.566,80.44z"/>
		<path fill="url(#mantling_outer_grad)" stroke="#000000" stroke-width="2" d="M110.566,80.44c-19.5,2.5-22-2.5-26.75-9.5
			c-4.25,6.75-20.5,4.885-28.25,3c-9.25-2.25-18.25-9.75-19.75-22.75c9,13.25,23.722,13.418,34.986,11.459
			s29.514-12.959,34.514-28.459C100.816,54.69,96.316,69.19,110.566,80.44z"/>
		<path fill="#OUTER#" stroke="#000000" stroke-width="2" d="M77.816,35.94c-5.75-0.75-10.25-9.25-7.75-13.75c-6.25,1.5-8-6-6.5-11
			c3,4.5,12.5,5,18,1.667C79.816,17.107,75.316,27.44,77.816,35.94z"/>
		<path fill="#OUTER#" stroke="#000000" stroke-width="2" d="M78.566,155.69c-0.75-2.752-1.877-8.364-3.074-10.965
			c-0.437-0.949-1.176-0.785-2.323,2.151c-1.103-3.437,0.039-7.097-0.412-8.162c-2.512-5.934-4.209-12.301-1.691-20.524
			c3.565-11.646,12.553-19.451,25.328-26.03c0.663-0.341,18.505-9.637,31.672-21.97c-5.5,7.5-9,16.5-6,33.5
			c-5-6-6.5-16-5.969-19.291c-9.156,4.291-12.698,12.457-12.698,18.124c-2.667-1.667-3.583-7.458-5.344-8.175
			c-10.239,5.466-13.945,13.675-13.854,21.342c0.021,1.757,1.615,8.25,2.904,11.399c1.511,2.995,5.461,9.1,5.961,17.6
			C90.066,150.19,83.732,153.524,78.566,155.69z"/>
		<path fill="#OUTER#" stroke="#000000" stroke-width="2" d="M77.034,192.368c1.532,4.156,2.865,10.823-2.635,16.823
			c2.833-7-1.583-13.126-2.542-16.313s-0.958-6.521-0.292-8.687c1.5-0.333,4.167-2.167,6.5-3.5
			C77.054,183.187,75.502,188.211,77.034,192.368z"/>
		<path fill="#OUTER#" stroke="#000000" stroke-width="2" d="M349.567,220.691c1.75-7.25,6.25-6.75,11.5-15.5
			c6.434-10.721,5.875-20,3.126-26c-0.876,8.25-10.718,15.046-17.126,18.25c-3,1.5-11.107,6.538-11.607,19.038
			C338.459,220.479,343.817,220.941,349.567,220.691z"/>
		<path fill="#OUTER#" stroke="#000000" stroke-width="2" d="M293.984,79.774c19.5,2.5,22-2.5,26.75-9.5
			c4.25,6.75,20.5,4.885,28.25,3c9.25-2.25,18.25-9.75,19.75-22.75c-9,13.25-23.721,13.418-34.985,11.459
			s-29.515-12.959-34.515-28.459C303.734,54.024,308.234,68.524,293.984,79.774z"/>
		<path fill="url(#mantling_outer_grad)" stroke="#000000" stroke-width="2" d="M293.984,79.774c19.5,2.5,22-2.5,26.75-9.5
			c4.25,6.75,20.5,4.885,28.25,3c9.25-2.25,18.25-9.75,19.75-22.75c-9,13.25-23.721,13.418-34.985,11.459
			s-29.515-12.959-34.515-28.459C303.734,54.024,308.234,68.524,293.984,79.774z"/>
		<path fill="#OUTER#" stroke="#000000" stroke-width="2" d="M327.4,36.607c5.75-0.75,10.25-9.25,7.75-13.75c6.25,1.5,8-6,6.5-11
			c-3,4.5-12.5,5-18,1.667C325.4,17.774,329.9,28.107,327.4,36.607z"/>
		<path fill="#OUTER#" stroke="#000000" stroke-width="2" d="M326.317,156.357c0.751-2.752,1.877-8.364,3.074-10.965
			c0.437-0.949,1.176-0.785,2.323,2.151c1.103-3.437-0.039-7.097,0.411-8.162c2.513-5.934,4.209-12.301,1.691-20.524
			c-3.564-11.646-12.553-19.451-25.328-26.03c-0.662-0.341-18.506-9.637-31.672-21.97c5.5,7.5,9,16.5,6,33.5
			c5-6,6.5-16,5.969-19.291c9.156,4.291,12.697,12.457,12.697,18.124c2.668-1.667,3.584-7.458,5.346-8.175
			c10.238,5.466,13.944,13.675,13.854,21.342c-0.02,1.757-1.615,8.25-2.903,11.399c-1.511,2.995-5.462,9.1-5.962,17.6
			C314.817,150.857,321.151,154.191,326.317,156.357z"/>
		<path fill="#OUTER#" stroke="#000000" stroke-width="2" d="M328.182,193.035c-1.532,4.156-2.865,10.823,2.635,16.823
			c-2.833-7,1.583-13.126,2.542-16.313c0.958-3.187,0.958-6.521,0.291-8.687c-1.5-0.333-4.166-2.167-6.5-3.5
			C328.162,183.854,329.714,188.878,328.182,193.035z"/>
	</g>
	<g id="headband_1_">
		<path fill="#OUTER#" stroke="#000000" stroke-width="2" d="M209.253,16.065c1.021-1.625,3.375-1.438,6.313-1.813
			c3.375-0.438,6.959-0.896,7.886,0.818l2.803,8.685c-1.751,0.997-4.684,0.843-7.288,1.295c-2.703,0.47-5.65,1.889-7.275,0.327
			L209.253,16.065z"/>
		<path fill="#OUTER#" stroke="#000000" stroke-width="2" d="M181.359,14.874c0.791-1.517,4.031-1.32,6.198-0.99
			c2.651,0.405,5.218,0.265,6.468,1.974l1.333,9.333c-1.167,1.813-3.658,1.178-6.996,0.529c-2.085-0.406-5.046-0.154-6.212-1.227
			L181.359,14.874z"/>
		<path fill="#OUTER#" stroke="#000000" stroke-width="2" d="M142.191,9.44c-2.125,21.875,32.375,24.25,39.684,15.548
			c-4.934,0.327-9.309-1.548-10.835-5.86c-9.201,3.799-24.097,0.44-28.849-9.063"/>
		<path fill="#OUTER#" stroke="#000000" stroke-width="2" d="M262.781,8.774c2.125,21.875-30.906,24.785-38.215,16.083
			c4.934,0.327,7.84-2.083,9.366-6.395c9.2,3.799,24.097,0.44,28.849-9.063"/>
	</g>
</g>
<g id="shield" transform="translate(114,127) scale(.47)">
	#SHIELD#
</g>
<g id="over_shield_frans">
	<path fill="#OUTER#" stroke="#000000" stroke-width="2" d="M107.816,206.19c-4.5-13.25-11.5-12.75-13.75-27
		c-1-15.75,6.44-25.854,6.44-25.854s-1.69,14.604,8.56,26.104c4.061,4.556,11.25,9.75,8.5,18
		C115.566,202.44,113.316,203.94,107.816,206.19z"/>
	<path fill="#OUTER#" stroke="#000000" stroke-width="2" d="M296.733,206.19c4.5-13.25,11.5-12.75,13.75-27
		c1-15.75-6.439-25.854-6.439-25.854s1.689,14.604-8.561,26.104c-4.061,4.556-11.25,9.75-8.5,18
		C288.983,202.44,291.233,203.94,296.733,206.19z"/>
	<path fill="#INNER#" stroke="#000000" stroke-width="2" d="M117.399,239.857c-9.667-0.333-17.667-6.667-17.667-19.333
		c-10.667,1.667-19.667-6.667-17-18c5.932,6.388,16.119,8.701,25.056,3.55c4.121-2.375,9.277-5.134,11.027-12.384
		C124.816,212.69,107.399,225.524,117.399,239.857z"/>
	<path fill="#INNER#" stroke="#000000" stroke-width="2" d="M287.463,240.191c9.668-0.333,17.667-6.667,17.667-19.333
		c10.667,1.667,19.667-6.667,17-18c-5.932,6.388-16.118,8.701-25.056,3.55c-4.121-2.375-9.277-5.134-11.027-12.384
		C280.047,213.024,297.463,225.858,287.463,240.191z"/>
</g>

<g id="helmet_2">
	<path fill="url(#gorget_top_grad)" stroke="#000000" stroke-width="2" d="M237.066,101.44c5.375,3.625,20,7.5,26,9.25c-1,8.125-51.25,33-60,33
		s-59-25-60-33c3.625-0.75,23-6.375,28-9.75s12-14.75,12-14.75h20h20C223.066,86.19,231.691,97.814,237.066,101.44z"/>
	<path fill="url(#gorget_top_grad)" stroke="#000000" stroke-width="2" d="M202.598,61.69c0,0-35.532-15.75-38.352-17.128
		c0.07-1.247,3.614-0.81,3.945-3.122c0.158-1.486,0.29-3.284,0.29-3.284l5.626,0.367l1.535,3.991l12.566,4.291l14.359,4.284
		L202.598,61.69z"/>
	<linearGradient id="visor_left_grad" gradientUnits="userSpaceOnUse" x1="200" y1="60" x2="220" y2="80">
		<stop  offset="0" style="stop-color:#A5A4A4"/>
		<stop  offset="1" style="stop-color:#656565"/>
	</linearGradient>
	<path fill="url(#visor_left_grad)" stroke="#000000" stroke-width="2" d="M202.847,61.565c0,0-0.102,33.677-0.102,35.901
		c3.195,0.099,10.662-4.205,10.662-4.205s9.254-5.098,12.006-8.504c2.752-3.407,16.34-37.066,15.535-40.069
		C237.128,46.69,202.847,61.565,202.847,61.565z"/>
	<path fill="url(#gorget_top_grad)" stroke="#000000" stroke-width="2" d="M202.622,61.69c0,0,35.532-15.75,38.352-17.128
		c-0.069-1.247-3.613-0.81-3.944-3.122c-0.158-1.486-0.289-3.284-0.289-3.284l-5.627,0.367l-1.535,3.991l-12.566,4.291
		l-14.359,4.284L202.622,61.69z"/>
	<linearGradient id="visor_right_grad" gradientUnits="userSpaceOnUse" x1="200" y1="60" x2="180" y2="80">
		<stop  offset="0" style="stop-color:#A5A4A4"/>
		<stop  offset="1" style="stop-color:#656565"/>
	</linearGradient>
	<path fill="url(#visor_right_grad)" stroke="#000000" stroke-width="2" d="M202.257,61.565c0,0,0.102,33.677,0.102,35.901
		c-3.195,0.099-10.662-4.205-10.662-4.205s-9.254-5.098-12.006-8.504c-2.752-3.407-16.34-37.066-15.535-40.069
		C167.976,46.69,202.257,61.565,202.257,61.565z"/>
</g>
<g id="banner">
	<linearGradient id="banner_left_grad" gradientUnits="userSpaceOnUse" x1="10" y1="0" x2="40" y2="0">
		<stop  offset="0" style="stop-color:#E8CA86"/>
		<stop  offset="0.5" style="stop-color:#D4B773"/>
		<stop  offset="1" style="stop-color:#7A6A45"/>
	</linearGradient>
	<path fill="url(#banner_left_grad)" stroke="#000000" stroke-width="3" d="M48.281,379.055c0,0-12.019-5.794-18.548-3.438
		c-6.167,2.227-18,0.535-22.667-1.112c7.333-5.647,17-25.971,17-25.971s-14.333-12.344-19-26.344c4,2,17.334,7.516,27.333,2.226
		c8.417-4.452,15.85-0.775,17.404,3.564C51.816,333.599,48.281,379.055,48.281,379.055z"/>
	<path fill="#8E7B4A" stroke="#000000" stroke-width="3" d="M40.691,386.47l9.625-5.565c0,0,0.513-48.086,0-50.505
		c-1.25,6.4-8.625,0.139-12.625,7.792C38.441,343.756,40.691,386.47,40.691,386.47z"/>
	<linearGradient id="banner_right_grad" gradientUnits="userSpaceOnUse" x1="370" y1="0" x2="400" y2="0">
		<stop  offset="0" style="stop-color:#7A6A45"/>
		<stop  offset="0.5" style="stop-color:#D4B773"/>
		<stop  offset="1" style="stop-color:#E8CA86"/>
	</linearGradient>
	<path fill="url(#banner_right_grad)" stroke="#000000" stroke-width="3" d="M358.078,379.333c0,0,12.02-5.794,18.548-3.438
		c6.167,2.227,17.56,1.48,22.667-1.112c-4.227-4.593-17-25.971-17-25.971s18.107-18.622,19-26.344
		c-4.227,2.389-17.334,7.515-27.333,2.226c-8.417-4.452-15.851-0.775-17.404,3.564C354.542,333.877,358.078,379.333,358.078,379.333
		z"/>
	<path fill="#8E7B4A" stroke="#000000" stroke-width="3" d="M365.667,386.748l-9.625-5.565c0,0-0.513-48.086,0-50.505
		c1.25,6.4,8.625,0.139,12.625,7.791C367.917,344.034,365.667,386.748,365.667,386.748z"/>
	<linearGradient id="banner_grad" gradientUnits="userSpaceOnUse" x1="35" y1="0" x2="370" y2="0">
		<stop  offset="0" style="stop-color:#7A6A45"/>
		<stop  offset="0.15" style="stop-color:#D4B773"/>
		<stop  offset="0.5" style="stop-color:#E8CA86"/>
		<stop  offset="0.85" style="stop-color:#D4B773"/>
		<stop  offset="1" style="stop-color:#7A6A45"/>
	</linearGradient>
	<path fill="url(#banner_grad)" stroke="#000000" stroke-width="3" d="M365.733,388.604c0,0-1.07,3.25-6.41,4.859
		c-19.973,6.015-113.7,7.971-155.257,7.385c-41.422-0.584-136.773-1.776-157.238-7.487c-5.556-1.55-6.762-5.87-6.762-5.87
		s-3.25-47.908-2-49.717c0.625,1.113,1.346,4.633,8.617,6.595c23.4,6.316,120.096,7.327,156.717,6.762
		c37.63-0.581,135.287-1.689,157.58-7.43c6.144-1.583,7.753-4.813,7.753-4.813L365.733,388.604z"/>
</g>
<g id="banner_text">
	<text
	   xml:space="preserve"
	   style="font-family:Rapscallion;font-size:28px;text-align:center;text-anchor:middle;fill:#353329;;stroke:none;stroke-width:1.00197315px;stroke-linecap:butt;stroke-linejoin:miter;stroke-opacity:1"
	   x="200"
	   y="385"
	   id="text3040">#BANNER#</text>
</g>
<g id="name_text">
	<text
	   xml:space="preserve"
	   style="font-family:Kingthings Spikeless;font-size:28px;text-align:center;text-anchor:middle;fill:#353329;;stroke:none;stroke-width:1.00197315px;stroke-linecap:butt;stroke-linejoin:miter;stroke-opacity:1"

	   x="200"
	   y="440"
	   id="text3040">#NAME#</text>
</g>

</svg>
