<svg version="1.1" xmlns="http://www.w3.org/2000/svg" xmlns:xlink="http://www.w3.org/1999/xlink" x="0px" y="0px"
	 width="100%" height="100%" viewBox="0 0 159.661 208.519" enable-background="new 0 0 159.661 208.519"
	 xml:space="preserve">

<pattern id="FurErmine" patternUnits="userSpaceOnUse"
	x="0" y="0" width="20" height="20"
	viewBox="5 5 20 20" >
	<rect x="3.917" fill="#FFFFFF" width="42.5" height="38.75"/>
	<g id="g32971_1_">
		<path id="path16653_1_" d="M21.222,2.5c0,0.896-0.727,1.622-1.622,1.622S17.977,3.396,17.977,2.5s0.727-1.622,1.623-1.622
			S21.222,1.605,21.222,2.5z M18.245,5.489c0,0.896-0.727,1.622-1.622,1.622S15,6.384,15,5.489s0.727-1.623,1.623-1.623
			S18.245,4.593,18.245,5.489z M24.149,5.489c0,0.896-0.727,1.622-1.623,1.622s-1.623-0.727-1.623-1.622s0.727-1.623,1.623-1.623
			S24.149,4.593,24.149,5.489z M19.147,4.628L20.09,4.66c0.026,4.994,3.08,12.32,3.08,12.32l-1.574-1.689
			c-0.661,0.767-1.836,2.285-1.836,2.285s-0.845-1.532-1.453-2.299l-2.191,1.721C16.115,16.998,19.094,9.728,19.147,4.628z"/>
	</g>
	<g id="g32971_2_">
		<path id="path16653_2_" d="M21.222,22.625c0,0.896-0.727,1.623-1.622,1.623s-1.623-0.727-1.623-1.623
			c0-0.895,0.727-1.621,1.623-1.621S21.222,21.73,21.222,22.625z M18.245,25.613c0,0.896-0.727,1.623-1.622,1.623
			S15,26.51,15,25.613c0-0.895,0.727-1.623,1.623-1.623S18.245,24.719,18.245,25.613z M24.149,25.613
			c0,0.896-0.727,1.623-1.623,1.623s-1.623-0.727-1.623-1.623c0-0.895,0.727-1.623,1.623-1.623S24.149,24.719,24.149,25.613z
			 M19.147,24.754l0.943,0.031c0.026,4.994,3.08,12.32,3.08,12.32l-1.574-1.689c-0.661,0.766-1.836,2.285-1.836,2.285
			s-0.845-1.533-1.453-2.299l-2.191,1.721C16.115,37.123,19.094,29.854,19.147,24.754z"/>
	</g>
	<g id="g32971_3_">
		<path id="path16653_3_" d="M31.096,10.5c0,0.896-0.727,1.622-1.621,1.622c-0.896,0-1.623-0.727-1.623-1.622
			s0.727-1.622,1.623-1.622C30.37,8.878,31.096,9.605,31.096,10.5z M28.12,13.489c0,0.896-0.727,1.622-1.622,1.622
			s-1.623-0.727-1.623-1.622s0.727-1.623,1.623-1.623S28.12,12.593,28.12,13.489z M34.024,13.489c0,0.896-0.727,1.622-1.622,1.622
			s-1.622-0.727-1.622-1.622s0.727-1.623,1.622-1.623S34.024,12.593,34.024,13.489z M29.022,12.628l0.943,0.031
			c0.025,4.994,3.08,12.321,3.08,12.321l-1.574-1.689c-0.66,0.766-1.836,2.285-1.836,2.285s-0.846-1.533-1.453-2.299l-2.191,1.721
			C25.991,24.998,28.969,17.728,29.022,12.628z"/>
	</g>
	<g id="g32971_4_">
		<path id="path16653_4_" d="M11.222,10.5c0,0.896-0.727,1.622-1.622,1.622S7.977,11.396,7.977,10.5S8.704,8.878,9.6,8.878
			S11.222,9.605,11.222,10.5z M8.245,13.489c0,0.896-0.727,1.622-1.622,1.622S5,14.384,5,13.489s0.727-1.623,1.623-1.623
			S8.245,12.593,8.245,13.489z M14.149,13.489c0,0.896-0.727,1.622-1.623,1.622s-1.623-0.727-1.623-1.622s0.727-1.623,1.623-1.623
			S14.149,12.593,14.149,13.489z M9.147,12.628l0.943,0.031c0.026,4.994,3.08,12.321,3.08,12.321l-1.574-1.689
			c-0.661,0.766-1.836,2.285-1.836,2.285s-0.845-1.533-1.453-2.299l-2.191,1.721C6.115,24.998,9.094,17.728,9.147,12.628z"/>
	</g>
	<g id="g32971_6_">
		<path id="path16653_6_" d="M41.221,2.5c0,0.896-0.727,1.622-1.621,1.622c-0.896,0-1.623-0.727-1.623-1.622
			s0.727-1.622,1.623-1.622C40.495,0.878,41.221,1.605,41.221,2.5z M38.245,5.489c0,0.896-0.727,1.622-1.622,1.622
			S35,6.384,35,5.489s0.727-1.623,1.622-1.623S38.245,4.593,38.245,5.489z M44.149,5.489c0,0.896-0.727,1.622-1.622,1.622
			s-1.622-0.727-1.622-1.622s0.727-1.623,1.622-1.623S44.149,4.593,44.149,5.489z M39.147,4.628L40.09,4.66
			c0.025,4.994,3.08,12.32,3.08,12.32l-1.574-1.689c-0.66,0.767-1.836,2.285-1.836,2.285s-0.846-1.532-1.453-2.299l-2.191,1.721
			C36.116,16.998,39.094,9.728,39.147,4.628z"/>
	</g>
	<g id="g32971_5_">
		<path id="path16653_5_" d="M41.221,22.625c0,0.896-0.727,1.623-1.621,1.623c-0.896,0-1.623-0.727-1.623-1.623
			c0-0.895,0.727-1.621,1.623-1.621C40.495,21.004,41.221,21.73,41.221,22.625z M38.245,25.613c0,0.896-0.727,1.623-1.622,1.623
			S35,26.51,35,25.613c0-0.895,0.727-1.623,1.622-1.623S38.245,24.719,38.245,25.613z M44.149,25.613
			c0,0.896-0.727,1.623-1.622,1.623s-1.622-0.727-1.622-1.623c0-0.895,0.727-1.623,1.622-1.623S44.149,24.719,44.149,25.613z
			 M39.147,24.754l0.943,0.031c0.025,4.994,3.08,12.32,3.08,12.32l-1.574-1.689c-0.66,0.766-1.836,2.285-1.836,2.285
			s-0.846-1.533-1.453-2.299l-2.191,1.721C36.116,37.123,39.094,29.854,39.147,24.754z"/>
	</g>
</pattern> 
<pattern id="FurErmines" patternUnits="userSpaceOnUse"
	x="0" y="0" width="20" height="20"
	viewBox="5 5 20 20" >
	<rect x="3.917" display="inline" width="42.5" height="38.75"/>
	<g id="g32971_12_" display="inline">
		<path id="path16653_12_" fill="#FFFFFF" d="M21.221,2.5c0,0.896-0.727,1.622-1.621,1.622c-0.896,0-1.623-0.727-1.623-1.622
			s0.727-1.622,1.623-1.622C20.495,0.878,21.221,1.605,21.221,2.5z M18.245,5.489c0,0.896-0.727,1.622-1.622,1.622
			S15,6.384,15,5.489s0.727-1.623,1.622-1.623S18.245,4.593,18.245,5.489z M24.149,5.489c0,0.896-0.727,1.622-1.622,1.622
			s-1.622-0.727-1.622-1.622s0.727-1.623,1.622-1.623S24.149,4.593,24.149,5.489z M19.147,4.628L20.09,4.66
			c0.025,4.994,3.08,12.32,3.08,12.32l-1.574-1.689c-0.66,0.767-1.836,2.285-1.836,2.285s-0.846-1.532-1.453-2.299l-2.191,1.721
			C16.116,16.998,19.094,9.728,19.147,4.628z"/>
	</g>
	<g id="g32971_11_" display="inline">
		<path id="path16653_11_" fill="#FFFFFF" d="M21.221,22.625c0,0.896-0.727,1.623-1.621,1.623c-0.896,0-1.623-0.727-1.623-1.623
			c0-0.895,0.727-1.621,1.623-1.621C20.495,21.004,21.221,21.73,21.221,22.625z M18.245,25.613c0,0.896-0.727,1.623-1.622,1.623
			S15,26.51,15,25.613c0-0.895,0.727-1.623,1.622-1.623S18.245,24.719,18.245,25.613z M24.149,25.613
			c0,0.896-0.727,1.623-1.622,1.623s-1.622-0.727-1.622-1.623c0-0.895,0.727-1.623,1.622-1.623S24.149,24.719,24.149,25.613z
			 M19.147,24.754l0.943,0.031c0.025,4.994,3.08,12.32,3.08,12.32l-1.574-1.689c-0.66,0.766-1.836,2.285-1.836,2.285
			s-0.846-1.533-1.453-2.299l-2.191,1.721C16.116,37.123,19.094,29.854,19.147,24.754z"/>
	</g>
	<g id="g32971_10_" display="inline">
		<path id="path16653_10_" fill="#FFFFFF" d="M31.096,10.5c0,0.896-0.727,1.622-1.621,1.622c-0.896,0-1.623-0.727-1.623-1.622
			s0.727-1.622,1.623-1.622C30.37,8.878,31.096,9.605,31.096,10.5z M28.12,13.489c0,0.896-0.727,1.622-1.622,1.622
			s-1.622-0.727-1.622-1.622s0.727-1.623,1.622-1.623S28.12,12.593,28.12,13.489z M34.024,13.489c0,0.896-0.727,1.622-1.622,1.622
			s-1.622-0.727-1.622-1.622s0.727-1.623,1.622-1.623S34.024,12.593,34.024,13.489z M29.022,12.628l0.943,0.031
			c0.025,4.994,3.08,12.321,3.08,12.321l-1.574-1.689c-0.66,0.766-1.836,2.285-1.836,2.285s-0.846-1.533-1.453-2.299l-2.191,1.721
			C25.991,24.998,28.969,17.728,29.022,12.628z"/>
	</g>
	<g id="g32971_9_" display="inline">
		<path id="path16653_9_" fill="#FFFFFF" d="M11.222,10.5c0,0.896-0.727,1.622-1.622,1.622S7.977,11.396,7.977,10.5
			S8.704,8.878,9.6,8.878S11.222,9.605,11.222,10.5z M8.245,13.489c0,0.896-0.727,1.622-1.622,1.622S5,14.384,5,13.489
			s0.727-1.623,1.623-1.623S8.245,12.593,8.245,13.489z M14.149,13.489c0,0.896-0.727,1.622-1.622,1.622s-1.623-0.727-1.623-1.622
			s0.727-1.623,1.623-1.623S14.149,12.593,14.149,13.489z M9.147,12.628l0.943,0.031c0.026,4.994,3.08,12.321,3.08,12.321
			l-1.574-1.689c-0.661,0.766-1.836,2.285-1.836,2.285s-0.845-1.533-1.453-2.299l-2.191,1.721
			C6.115,24.998,9.094,17.728,9.147,12.628z"/>
	</g>
	<g id="g32971_8_" display="inline">
		<path id="path16653_8_" fill="#FFFFFF" d="M41.221,2.5c0,0.896-0.727,1.622-1.621,1.622c-0.896,0-1.623-0.727-1.623-1.622
			s0.727-1.622,1.623-1.622C40.495,0.878,41.221,1.605,41.221,2.5z M38.245,5.489c0,0.896-0.727,1.622-1.622,1.622
			S35,6.384,35,5.489s0.727-1.623,1.622-1.623S38.245,4.593,38.245,5.489z M44.149,5.489c0,0.896-0.727,1.622-1.622,1.622
			s-1.622-0.727-1.622-1.622s0.727-1.623,1.622-1.623S44.149,4.593,44.149,5.489z M39.147,4.628L40.09,4.66
			c0.025,4.994,3.08,12.32,3.08,12.32l-1.574-1.689c-0.66,0.767-1.836,2.285-1.836,2.285s-0.846-1.532-1.453-2.299l-2.191,1.721
			C36.116,16.998,39.094,9.728,39.147,4.628z"/>
	</g>
	<g id="g32971_7_" display="inline">
		<path id="path16653_7_" fill="#FFFFFF" d="M41.221,22.625c0,0.896-0.727,1.623-1.621,1.623c-0.896,0-1.623-0.727-1.623-1.623
			c0-0.895,0.727-1.621,1.623-1.621C40.495,21.004,41.221,21.73,41.221,22.625z M38.245,25.613c0,0.896-0.727,1.623-1.622,1.623
			S35,26.51,35,25.613c0-0.895,0.727-1.623,1.622-1.623S38.245,24.719,38.245,25.613z M44.149,25.613
			c0,0.896-0.727,1.623-1.622,1.623s-1.622-0.727-1.622-1.623c0-0.895,0.727-1.623,1.622-1.623S44.149,24.719,44.149,25.613z
			 M39.147,24.754l0.943,0.031c0.025,4.994,3.08,12.32,3.08,12.32l-1.574-1.689c-0.66,0.766-1.836,2.285-1.836,2.285
			s-0.846-1.533-1.453-2.299l-2.191,1.721C36.116,37.123,39.094,29.854,39.147,24.754z"/>
	</g>
</pattern> 
<pattern id="FurErminois" patternUnits="userSpaceOnUse"
	x="0" y="0" width="20" height="20"
	viewBox="5 5 20 20" >
	<rect x="3.917" display="inline" fill="#F2D73A" width="42.5" height="38.75"/>
	<g id="g32971_18_" display="inline">
		<path id="path16653_18_" d="M21.221,2.5c0,0.896-0.727,1.622-1.621,1.622c-0.896,0-1.623-0.727-1.623-1.622
			s0.727-1.622,1.623-1.622C20.495,0.878,21.221,1.605,21.221,2.5z M18.245,5.489c0,0.896-0.727,1.622-1.622,1.622
			S15,6.384,15,5.489s0.727-1.623,1.622-1.623S18.245,4.593,18.245,5.489z M24.149,5.489c0,0.896-0.727,1.622-1.622,1.622
			s-1.622-0.727-1.622-1.622s0.727-1.623,1.622-1.623S24.149,4.593,24.149,5.489z M19.147,4.628L20.09,4.66
			c0.025,4.994,3.08,12.32,3.08,12.32l-1.574-1.689c-0.66,0.767-1.836,2.285-1.836,2.285s-0.846-1.532-1.453-2.299l-2.191,1.721
			C16.116,16.998,19.094,9.728,19.147,4.628z"/>
	</g>
	<g id="g32971_17_" display="inline">
		<path id="path16653_17_" d="M21.221,22.625c0,0.896-0.727,1.623-1.621,1.623c-0.896,0-1.623-0.727-1.623-1.623
			c0-0.895,0.727-1.621,1.623-1.621C20.495,21.004,21.221,21.73,21.221,22.625z M18.245,25.613c0,0.896-0.727,1.623-1.622,1.623
			S15,26.51,15,25.613c0-0.895,0.727-1.623,1.622-1.623S18.245,24.719,18.245,25.613z M24.149,25.613
			c0,0.896-0.727,1.623-1.622,1.623s-1.622-0.727-1.622-1.623c0-0.895,0.727-1.623,1.622-1.623S24.149,24.719,24.149,25.613z
			 M19.147,24.754l0.943,0.031c0.025,4.994,3.08,12.32,3.08,12.32l-1.574-1.689c-0.66,0.766-1.836,2.285-1.836,2.285
			s-0.846-1.533-1.453-2.299l-2.191,1.721C16.116,37.123,19.094,29.854,19.147,24.754z"/>
	</g>
	<g id="g32971_16_" display="inline">
		<path id="path16653_16_" d="M31.096,10.5c0,0.896-0.727,1.622-1.621,1.622c-0.896,0-1.623-0.727-1.623-1.622
			s0.727-1.622,1.623-1.622C30.37,8.878,31.096,9.605,31.096,10.5z M28.12,13.489c0,0.896-0.727,1.622-1.622,1.622
			s-1.622-0.727-1.622-1.622s0.727-1.623,1.622-1.623S28.12,12.593,28.12,13.489z M34.024,13.489c0,0.896-0.727,1.622-1.622,1.622
			s-1.622-0.727-1.622-1.622s0.727-1.623,1.622-1.623S34.024,12.593,34.024,13.489z M29.022,12.628l0.943,0.031
			c0.025,4.994,3.08,12.321,3.08,12.321l-1.574-1.689c-0.66,0.766-1.836,2.285-1.836,2.285s-0.846-1.533-1.453-2.299l-2.191,1.721
			C25.991,24.998,28.969,17.728,29.022,12.628z"/>
	</g>
	<g id="g32971_15_" display="inline">
		<path id="path16653_15_" d="M11.222,10.5c0,0.896-0.727,1.622-1.622,1.622S7.977,11.396,7.977,10.5S8.704,8.878,9.6,8.878
			S11.222,9.605,11.222,10.5z M8.245,13.489c0,0.896-0.727,1.622-1.622,1.622S5,14.384,5,13.489s0.727-1.623,1.623-1.623
			S8.245,12.593,8.245,13.489z M14.149,13.489c0,0.896-0.727,1.622-1.622,1.622s-1.623-0.727-1.623-1.622s0.727-1.623,1.623-1.623
			S14.149,12.593,14.149,13.489z M9.147,12.628l0.943,0.031c0.026,4.994,3.08,12.321,3.08,12.321l-1.574-1.689
			c-0.661,0.766-1.836,2.285-1.836,2.285s-0.845-1.533-1.453-2.299l-2.191,1.721C6.115,24.998,9.094,17.728,9.147,12.628z"/>
	</g>
	<g id="g32971_14_" display="inline">
		<path id="path16653_14_" d="M41.221,2.5c0,0.896-0.727,1.622-1.621,1.622c-0.896,0-1.623-0.727-1.623-1.622
			s0.727-1.622,1.623-1.622C40.495,0.878,41.221,1.605,41.221,2.5z M38.245,5.489c0,0.896-0.727,1.622-1.622,1.622
			S35,6.384,35,5.489s0.727-1.623,1.622-1.623S38.245,4.593,38.245,5.489z M44.149,5.489c0,0.896-0.727,1.622-1.622,1.622
			s-1.622-0.727-1.622-1.622s0.727-1.623,1.622-1.623S44.149,4.593,44.149,5.489z M39.147,4.628L40.09,4.66
			c0.025,4.994,3.08,12.32,3.08,12.32l-1.574-1.689c-0.66,0.767-1.836,2.285-1.836,2.285s-0.846-1.532-1.453-2.299l-2.191,1.721
			C36.116,16.998,39.094,9.728,39.147,4.628z"/>
	</g>
	<g id="g32971_13_" display="inline">
		<path id="path16653_13_" d="M41.221,22.625c0,0.896-0.727,1.623-1.621,1.623c-0.896,0-1.623-0.727-1.623-1.623
			c0-0.895,0.727-1.621,1.623-1.621C40.495,21.004,41.221,21.73,41.221,22.625z M38.245,25.613c0,0.896-0.727,1.623-1.622,1.623
			S35,26.51,35,25.613c0-0.895,0.727-1.623,1.622-1.623S38.245,24.719,38.245,25.613z M44.149,25.613
			c0,0.896-0.727,1.623-1.622,1.623s-1.622-0.727-1.622-1.623c0-0.895,0.727-1.623,1.622-1.623S44.149,24.719,44.149,25.613z
			 M39.147,24.754l0.943,0.031c0.025,4.994,3.08,12.32,3.08,12.32l-1.574-1.689c-0.66,0.766-1.836,2.285-1.836,2.285
			s-0.846-1.533-1.453-2.299l-2.191,1.721C36.116,37.123,39.094,29.854,39.147,24.754z"/>
	</g>
</pattern> 
<pattern id="FurPean" patternUnits="userSpaceOnUse"
	x="0" y="0" width="20" height="20"
	viewBox="5 5 20 20" >
	<rect x="3.917" display="inline" width="42.5" height="38.75"/>
	<g id="g32971_24_" display="inline">
		<path id="path16653_24_" fill="#F2D73A" d="M21.221,2.5c0,0.896-0.727,1.622-1.621,1.622c-0.896,0-1.623-0.727-1.623-1.622
			s0.727-1.622,1.623-1.622C20.495,0.878,21.221,1.605,21.221,2.5z M18.245,5.489c0,0.896-0.727,1.622-1.622,1.622
			S15,6.384,15,5.489s0.727-1.623,1.622-1.623S18.245,4.593,18.245,5.489z M24.149,5.489c0,0.896-0.727,1.622-1.622,1.622
			s-1.622-0.727-1.622-1.622s0.727-1.623,1.622-1.623S24.149,4.593,24.149,5.489z M19.147,4.628L20.09,4.66
			c0.025,4.994,3.08,12.32,3.08,12.32l-1.574-1.689c-0.66,0.767-1.836,2.285-1.836,2.285s-0.846-1.532-1.453-2.299l-2.191,1.721
			C16.116,16.998,19.094,9.728,19.147,4.628z"/>
	</g>
	<g id="g32971_23_" display="inline">
		<path id="path16653_23_" fill="#F2D73A" d="M21.221,22.625c0,0.896-0.727,1.623-1.621,1.623c-0.896,0-1.623-0.727-1.623-1.623
			c0-0.895,0.727-1.621,1.623-1.621C20.495,21.004,21.221,21.73,21.221,22.625z M18.245,25.613c0,0.896-0.727,1.623-1.622,1.623
			S15,26.51,15,25.613c0-0.895,0.727-1.623,1.622-1.623S18.245,24.719,18.245,25.613z M24.149,25.613
			c0,0.896-0.727,1.623-1.622,1.623s-1.622-0.727-1.622-1.623c0-0.895,0.727-1.623,1.622-1.623S24.149,24.719,24.149,25.613z
			 M19.147,24.754l0.943,0.031c0.025,4.994,3.08,12.32,3.08,12.32l-1.574-1.689c-0.66,0.766-1.836,2.285-1.836,2.285
			s-0.846-1.533-1.453-2.299l-2.191,1.721C16.116,37.123,19.094,29.854,19.147,24.754z"/>
	</g>
	<g id="g32971_22_" display="inline">
		<path id="path16653_22_" fill="#F2D73A" d="M31.096,10.5c0,0.896-0.727,1.622-1.621,1.622c-0.896,0-1.623-0.727-1.623-1.622
			s0.727-1.622,1.623-1.622C30.37,8.878,31.096,9.605,31.096,10.5z M28.12,13.489c0,0.896-0.727,1.622-1.622,1.622
			s-1.622-0.727-1.622-1.622s0.727-1.623,1.622-1.623S28.12,12.593,28.12,13.489z M34.024,13.489c0,0.896-0.727,1.622-1.622,1.622
			s-1.622-0.727-1.622-1.622s0.727-1.623,1.622-1.623S34.024,12.593,34.024,13.489z M29.022,12.628l0.943,0.031
			c0.025,4.994,3.08,12.321,3.08,12.321l-1.574-1.689c-0.66,0.766-1.836,2.285-1.836,2.285s-0.846-1.533-1.453-2.299l-2.191,1.721
			C25.991,24.998,28.969,17.728,29.022,12.628z"/>
	</g>
	<g id="g32971_21_" display="inline">
		<path id="path16653_21_" fill="#F2D73A" d="M11.222,10.5c0,0.896-0.727,1.622-1.622,1.622S7.977,11.396,7.977,10.5
			S8.704,8.878,9.6,8.878S11.222,9.605,11.222,10.5z M8.245,13.489c0,0.896-0.727,1.622-1.622,1.622S5,14.384,5,13.489
			s0.727-1.623,1.623-1.623S8.245,12.593,8.245,13.489z M14.149,13.489c0,0.896-0.727,1.622-1.622,1.622s-1.623-0.727-1.623-1.622
			s0.727-1.623,1.623-1.623S14.149,12.593,14.149,13.489z M9.147,12.628l0.943,0.031c0.026,4.994,3.08,12.321,3.08,12.321
			l-1.574-1.689c-0.661,0.766-1.836,2.285-1.836,2.285s-0.845-1.533-1.453-2.299l-2.191,1.721
			C6.115,24.998,9.094,17.728,9.147,12.628z"/>
	</g>
	<g id="g32971_20_" display="inline">
		<path id="path16653_20_" fill="#F2D73A" d="M41.221,2.5c0,0.896-0.727,1.622-1.621,1.622c-0.896,0-1.623-0.727-1.623-1.622
			s0.727-1.622,1.623-1.622C40.495,0.878,41.221,1.605,41.221,2.5z M38.245,5.489c0,0.896-0.727,1.622-1.622,1.622
			S35,6.384,35,5.489s0.727-1.623,1.622-1.623S38.245,4.593,38.245,5.489z M44.149,5.489c0,0.896-0.727,1.622-1.622,1.622
			s-1.622-0.727-1.622-1.622s0.727-1.623,1.622-1.623S44.149,4.593,44.149,5.489z M39.147,4.628L40.09,4.66
			c0.025,4.994,3.08,12.32,3.08,12.32l-1.574-1.689c-0.66,0.767-1.836,2.285-1.836,2.285s-0.846-1.532-1.453-2.299l-2.191,1.721
			C36.116,16.998,39.094,9.728,39.147,4.628z"/>
	</g>
	<g id="g32971_19_" display="inline">
		<path id="path16653_19_" fill="#F2D73A" d="M41.221,22.625c0,0.896-0.727,1.623-1.621,1.623c-0.896,0-1.623-0.727-1.623-1.623
			c0-0.895,0.727-1.621,1.623-1.621C40.495,21.004,41.221,21.73,41.221,22.625z M38.245,25.613c0,0.896-0.727,1.623-1.622,1.623
			S35,26.51,35,25.613c0-0.895,0.727-1.623,1.622-1.623S38.245,24.719,38.245,25.613z M44.149,25.613
			c0,0.896-0.727,1.623-1.622,1.623s-1.622-0.727-1.622-1.623c0-0.895,0.727-1.623,1.622-1.623S44.149,24.719,44.149,25.613z
			 M39.147,24.754l0.943,0.031c0.025,4.994,3.08,12.32,3.08,12.32l-1.574-1.689c-0.66,0.766-1.836,2.285-1.836,2.285
			s-0.846-1.533-1.453-2.299l-2.191,1.721C36.116,37.123,39.094,29.854,39.147,24.754z"/>
	</g>
</pattern> 
<pattern id="FurVair" patternUnits="userSpaceOnUse"
	x="0" y="0" width="30" height="28"
	viewBox="0 9.625 20 18.5" >
	<rect y="9.625" display="inline" fill="#3C499E" width="50.001" height="18"/>
	<g id="g9802_1_" display="inline">
		<path id="path9776_1_" fill="#FFFFFF" d="M0,9.625v9h4.5l-2.5-2.5v-5.5l-1-1H0z"/>
		<path id="path7619_1_" fill="#FFFFFF" d="M19,9.625h2l1,1v5.5l2.5,2.5h-9l2.5-2.5v-5.5L19,9.625z"/>
		<path id="path9768_1_" fill="#FFFFFF" d="M9,9.625h2l1,1v5.5l2.5,2.5h-9l2.5-2.5v-5.5L9,9.625z"/>
		<path id="path9770_1_" fill="#FFFFFF" d="M39,9.625h2l1,1v5.5l2.5,2.5h-9l2.5-2.5v-5.5L39,9.625z"/>
		<path id="path9772_1_" fill="#FFFFFF" d="M29,9.625h2l1,1v5.5l2.5,2.5h-9l2.5-2.5v-5.5L29,9.625z"/>
		<path id="path9774_1_" fill="#FFFFFF" d="M49,9.625l-1,1v5.5l-2.5,2.5H50v-9H49z"/>
		<path id="path9778_1_" fill="#FFFFFF" d="M24,18.625h2l1,1v5.5l2.5,2.5h-9l2.5-2.5v-5.5L24,18.625z"/>
		<path id="path9780_1_" fill="#FFFFFF" d="M14,18.625h2l1,1v5.5l2.5,2.5h-9l2.5-2.5v-5.5L14,18.625z"/>
		<path id="path9782_1_" fill="#FFFFFF" d="M44,18.625h2l1,1v5.5l2.5,2.5h-9l2.5-2.5v-5.5L44,18.625z"/>
		<path id="path9784_1_" fill="#FFFFFF" d="M34,18.625h2l1,1v5.5l2.5,2.5h-9l2.5-2.5v-5.5L34,18.625z"/>
		<path id="path9788_1_" fill="#FFFFFF" d="M4,18.625h2l1,1v5.5l2.5,2.5h-9l2.5-2.5v-5.5L4,18.625z"/>
	</g>
</pattern> 
<pattern id="FurCounterVair" patternUnits="userSpaceOnUse"
	x="0" y="0" width="30" height="28"
	viewBox="0.042 9.833 20 18.918" >
	<rect x="0.042" y="9.833" display="inline" fill="#3C499E" width="49.96" height="18.918"/>
	<g id="g13455_1_" display="inline">
		<path id="path12536_1_" fill="#FFFFFF" d="M24.042,9.792l-1,1v5.5l-2.5,2.5h-0.5v1h0.5l2.5,2.5v5.5l1,1h2l1-1v-5.5l2.5-2.5h0.5v-1
			h-0.5l-2.5-2.5v-5.5l-1-1H24.042z M34.042,9.792l-1,1v5.5l-2.5,2.5h-0.5v1h0.5l2.5,2.5v5.5l1,1h2l1-1v-5.5l2.5-2.5h0.5v-1h-0.5
			l-2.5-2.5v-5.5l-1-1H34.042z M4.042,9.792l-1,1v5.5l-2.5,2.5h-0.5v1h0.5l2.5,2.5v5.5l1,1h2l1-1v-5.5l2.5-2.5h0.5v-1h-0.5l-2.5-2.5
			v-5.5l-1-1H4.042z M14.042,9.792l-1,1v5.5l-2.5,2.5h-0.5v1h0.5l2.5,2.5v5.5l1,1h2l1-1v-5.5l2.5-2.5h0.5v-1h-0.5l-2.5-2.5v-5.5
			l-1-1H14.042z M44.042,9.792l-1,1v5.5l-2.5,2.5h-0.5v1h0.5l2.5,2.5v5.5l1,1h2l1-1v-5.5l2.5-2.5h0.5v-1h-0.5l-2.5-2.5v-5.5l-1-1
			H44.042z"/>
	</g>
</pattern> 
<pattern id="FurPotent" patternUnits="userSpaceOnUse"
	x="0" y="0" width="18.75" height="17.81"
	viewBox="4.792 10.042 20 19" >
	<rect x="4.792" y="10.042" display="inline" fill="#3C499E" width="40.003" height="19"/>
	<g id="g4068_1_" display="inline">
		<path id="path4042_1_" fill="#FFFFFF" d="M9.791,10.042v4h-5v5h5h5h5v-5h-5v-4H9.791z"/>
		<path id="rect4033_1_" fill="#FFFFFF" d="M19.791,19.041v5h-5v5h5h5h5v-5h-5v-5H19.791z"/>
		<path id="path4040_1_" fill="#FFFFFF" d="M39.792,19.041v5h-5v5h5h5v-10H39.792z"/>
		<path id="path4044_1_" fill="#FFFFFF" d="M4.791,29.041h5v-5h-5V29.041z"/>
		<path id="path4046_1_" fill="#FFFFFF" d="M29.792,10.042v4h-5v5h5h5h5v-5h-5v-4H29.792z"/>
	</g>
</pattern> 
<pattern id="FurCounterPotent" patternUnits="userSpaceOnUse"
	x="0" y="0" width="18.75" height="18.75"
	viewBox="4.792 7.417 20 20" >
	<rect x="4.792" y="7.417" display="inline" fill="#3C499E" width="40.003" height="24"/>
	<g id="g4052_1_" display="inline">
		<path id="rect4007_1_" fill="#FFFFFF" d="M12.292,7.417v5h-5v10h5v9h5v-9h5v-10h-5v-5H12.292z"/>
		<path id="path4012_1_" fill="#FFFFFF" d="M32.292,7.417v5h-5v10h5v9h5v-9h5v-10h-5v-5H32.292z"/>
	</g>
</pattern> 
<pattern id="division" patternUnits="userSpaceOnUse"
	x="0" y="0" width="163" height="217"
	viewBox="0 0 163 217" >
  <g id="base">
	<rect
		fill="#FIELD#" 
		id="rect2985"
		width="163"
		height="217"
		x="0"
		y="0"
		/>
  </g>
	#DIVISION#
	<g id="ordinaries">
		#ORDINARIES#
	</g>
</pattern> 


<g id="shield">
	<path style="fill:url(#division);fill-opacity:1;stroke:#464646;stroke-width:2;stroke-miterlimit:4;stroke-opacity:1;stroke-dasharray:none" d="m 1.5,2.1060638 146,0 c 0,0 -0.0173,101.7413862 0,149.9999962 0.0104,29.12235 -66.627653,27 -73,48 -5.622347,-21 -73.0113045,-18.87765 -73,-48 0.017277,-44.50861 0,-149.9999962 0,-149.9999962 z" id="rect3071" />

</g>

<g id="shield_outline">
	<path style="fill:none;fill-opacity:1;stroke:#464646;stroke-width:3;stroke-miterlimit:4;stroke-opacity:1;stroke-dasharray:none" d="m 1.5,2.1060638 146,0 c 0,0 -0.0173,101.7413862 0,149.9999962 0.0104,29.12235 -66.627653,27 -73,48 -5.622347,-21 -73.0113045,-18.87765 -73,-48 0.017277,-44.50861 0,-149.9999962 0,-149.9999962 z" id="rect3071" />

</g>

#CHARGE#

<g id="Layer_2">
	<g id="shield_1_" opacity="0.15">
		<linearGradient id="path100_2_" gradientUnits="userSpaceOnUse" x1="0" y1="0" x2="160" y2="0">
			<stop  offset="0" style="stop-color:#131012"/>
			<stop  offset="0.3257" style="stop-color:#CCCCCC"/>
			<stop  offset="0.4999" style="stop-color:#FFFFFF"/>
			<stop  offset="0.6855" style="stop-color:#CCCCCC"/>
			<stop  offset="1" style="stop-color:#333333"/>
		</linearGradient>
		<path id="path100_1_" fill="url(#path100_2_)"  d="m 1.5,2.1060638 146,0 c 0,0 -0.0173,101.7413862 0,149.9999962 0.0104,29.12235 -66.627653,27 -73,48 -5.622347,-21 -73.0113045,-18.87765 -73,-48 0.017277,-44.50861 0,-149.9999962 0,-149.9999962 z" />
	</g>
</g>
</svg>
