<?xml version="1.0" encoding="UTF-8" standalone="no"?>
<!-- Created with Inkscape (http://www.inkscape.org/) -->

<svg
   xmlns:dc="http://purl.org/dc/elements/1.1/"
   xmlns:cc="http://creativecommons.org/ns#"
   xmlns:rdf="http://www.w3.org/1999/02/22-rdf-syntax-ns#"
   xmlns:svg="http://www.w3.org/2000/svg"
   xmlns="http://www.w3.org/2000/svg"
   xmlns:sodipodi="http://sodipodi.sourceforge.net/DTD/sodipodi-0.dtd"
   xmlns:inkscape="http://www.inkscape.org/namespaces/inkscape"
   width="149.1815"
   height="201.10606"
   id="svg2"
   version="1.1"
   inkscape:version="0.48.0 r9654"
   sodipodi:docname="base_div_ord_5.svg"
   style="display:inline">
  <defs
     id="defs4">
    <linearGradient
       id="path100_2_"
       gradientUnits="userSpaceOnUse"
       x1="4.7540998"
       y1="419.42209"
       x2="590.41333"
       y2="419.42209">
      <stop
         offset="0"
         style="stop-color:#131012"
         id="stop16" />
      <stop
         offset="0.3257"
         style="stop-color:#CCCCCC"
         id="stop18" />
      <stop
         offset="0.4999"
         style="stop-color:#FFFFFF"
         id="stop20" />
      <stop
         offset="0.6855"
         style="stop-color:#CCCCCC"
         id="stop22" />
      <stop
         offset="1"
         style="stop-color:#333333"
         id="stop24" />
    </linearGradient>
    <linearGradient
       id="path100_2_-8"
       gradientUnits="userSpaceOnUse"
       x1="4.7540998"
       y1="419.42209"
       x2="590.41333"
       y2="419.42209">
      <stop
         offset="0"
         style="stop-color:#131012"
         id="stop16-6" />
      <stop
         offset="0.3257"
         style="stop-color:#CCCCCC"
         id="stop18-6" />
      <stop
         offset="0.4999"
         style="stop-color:#FFFFFF"
         id="stop20-2" />
      <stop
         offset="0.6855"
         style="stop-color:#CCCCCC"
         id="stop22-3" />
      <stop
         offset="1"
         style="stop-color:#333333"
         id="stop24-8" />
    </linearGradient>
  </defs>
  <sodipodi:namedview
     id="base"
     pagecolor="#ffffff"
     bordercolor="#666666"
     borderopacity="1.0"
     inkscape:pageopacity="0.0"
     inkscape:pageshadow="2"
     inkscape:zoom="11.313709"
     inkscape:cx="22.077523"
     inkscape:cy="142.5968"
     inkscape:document-units="px"
     inkscape:current-layer="layer22"
     showgrid="false"
     inkscape:window-width="1600"
     inkscape:window-height="1138"
     inkscape:window-x="-8"
     inkscape:window-y="-8"
     inkscape:window-maximized="1"
     fit-margin-top="0"
     fit-margin-left="0"
     fit-margin-right="0"
     fit-margin-bottom="0" />
  <metadata
     id="metadata7">
    <rdf:RDF>
      <cc:Work
         rdf:about="">
        <dc:format>image/svg+xml</dc:format>
        <dc:type
           rdf:resource="http://purl.org/dc/dcmitype/StillImage" />
        <dc:title />
      </cc:Work>
    </rdf:RDF>
  </metadata>
  <g
     inkscape:label="base"
     inkscape:groupmode="layer"
     id="layer1"
     transform="translate(-0.33428551,1.11753)"
     sodipodi:insensitive="true">
    <rect
       style="fill:#7b5924;fill-opacity:1;stroke:none"
       id="rect2985"
       width="149"
       height="200"
       x="0.51577997"
       y="-0.74336648" />
  </g>
  <g
     inkscape:groupmode="layer"
     id="layer15"
     inkscape:label="helpers"
     style="display:none"
     sodipodi:insensitive="true">
    <path
       style="fill:#e5e5e5;fill-opacity:1;stroke:#000000;stroke-width:0.99751848;stroke-miterlimit:4;stroke-opacity:1"
       d="M 6.3735211,23.849504 17.986011,14.114016 29.598494,4.378534 175.44896,176.87853 l -11.61248,9.73549 -11.61249,9.73548 z"
       id="rect4245-8"
       inkscape:connector-curvature="0"
       sodipodi:nodetypes="ccccccc" />
    <path
       style="fill:#e5e5e5;fill-opacity:1;stroke:#000000;stroke-width:0.99751848;stroke-miterlimit:4;stroke-opacity:1;display:inline"
       d="m -39.051732,109.92018 0.09814,-15.412344 0.09814,-14.89408 225.894532,0 -0.0981,15.412341 -0.0982,14.894083 z"
       id="rect4245-8-3"
       inkscape:connector-curvature="0"
       sodipodi:nodetypes="ccccccc" />
    <path
       style="fill:#e5e5e5;fill-opacity:1;stroke:#000000;stroke-width:0.99751848;stroke-miterlimit:4;stroke-opacity:1;display:inline"
       d="m 59.092958,2.026417 15.412347,0.0981 14.89408,0.0981 0,225.894523 -15.412341,-0.0981 -14.894086,-0.0982 z"
       id="rect4245-8-3-6"
       inkscape:connector-curvature="0"
       sodipodi:nodetypes="ccccccc" />
  </g>
  <g
     inkscape:groupmode="layer"
     id="layer2"
     inkscape:label="per pale"
     style="display:none"
     transform="translate(-0.33428551,1.11753)"
     sodipodi:insensitive="true">
    <path
       style="fill:#e5e5e5;fill-opacity:1;stroke:#000000;stroke-width:1;stroke-miterlimit:4;stroke-opacity:1"
       d="m 1.01578,1.40378 73.036072,0 0,198.03607 -73.036072,0 z"
       id="rect2985-1"
       inkscape:connector-curvature="0" />
  </g>
  <g
     inkscape:groupmode="layer"
     id="layer4"
     inkscape:label="gyronny"
     style="display:none"
     transform="translate(-0.33428551,1.11753)"
     sodipodi:insensitive="true">
    <path
       d="m 74.690061,90.252321 71.811399,-88.0033436 -71.937093,0 z"
       id="path17-2"
       inkscape:connector-curvature="0"
       style="fill:#e5e5e5;fill-opacity:1;stroke:#000000;stroke-width:1.00323474;stroke-miterlimit:4;stroke-dasharray:none;display:inline"
       sodipodi:nodetypes="cccc" />
    <path
       d="M 74.045695,89.387872 2.0580087,0.55240531 l 0,88.98768569 z"
       id="path17-2-4-8"
       inkscape:connector-curvature="0"
       style="fill:#e5e5e5;fill-opacity:1;stroke:#000000;stroke-width:1.0123142;stroke-miterlimit:4;stroke-dasharray:none;display:inline"
       sodipodi:nodetypes="cccc" />
    <path
       d="m 74.624038,90.017364 71.877232,86.414846 0,-86.601091 z"
       id="path17-2-4-8-6"
       inkscape:connector-curvature="0"
       style="fill:#e5e5e5;fill-opacity:1;stroke:#000000;stroke-width:1.12257636;stroke-miterlimit:4;stroke-dasharray:none;display:inline"
       sodipodi:nodetypes="cccc" />
    <path
       style="fill:#e5e5e5;fill-opacity:1;stroke:#000000;stroke-width:0.99783701;stroke-miterlimit:4;stroke-opacity:1;display:inline"
       d="M 2.0567037,177.51516 74.331924,90.261007 73.89287,199.26317 l -71.8361663,0 z"
       id="rect3203-8-7"
       inkscape:connector-curvature="0"
       sodipodi:nodetypes="ccccc" />
  </g>
  <g
     inkscape:groupmode="layer"
     id="layer26"
     inkscape:label="gyronny2"
     style="display:none"
     sodipodi:insensitive="true">
    <path
       style="fill:#e5e5e5;fill-opacity:1;stroke:#000000;stroke-width:1;stroke-miterlimit:4;stroke-opacity:1;display:inline"
       d="m 1.0949707,2.181193 73.0360713,88.036072 -73.0360713,0 z"
       id="rect2985-1-68"
       inkscape:connector-curvature="0"
       sodipodi:nodetypes="cccc" />
    <path
       style="fill:#e5e5e5;fill-opacity:1;stroke:#000000;stroke-width:1;stroke-miterlimit:4;stroke-opacity:1;display:inline"
       d="m 74.481964,2.1811929 73.036066,0 -73.036066,88.0360721 z"
       id="rect2985-1-68-5"
       inkscape:connector-curvature="0"
       sodipodi:nodetypes="cccc" />
    <path
       style="fill:#e5e5e5;fill-opacity:1;stroke:#000000;stroke-width:1;stroke-miterlimit:4;stroke-opacity:1;display:inline"
       d="m 1.03847,178.58803 73.03607,-88.000002 0,108.036072 -73.03607,0 z"
       id="rect2985-1-68-53"
       inkscape:connector-curvature="0"
       sodipodi:nodetypes="ccccc" />
    <path
       style="fill:#e5e5e5;fill-opacity:1;stroke:#000000;stroke-width:1;stroke-miterlimit:4;stroke-opacity:1;display:inline"
       d="m 74.42546,90.588028 73.03607,0 0,88.036072 z"
       id="rect2985-1-68-5-2"
       inkscape:connector-curvature="0"
       sodipodi:nodetypes="cccc" />
  </g>
  <g
     inkscape:groupmode="layer"
     id="layer5"
     inkscape:label="per bend"
     style="display:none"
     transform="translate(-0.33428551,1.11753)"
     sodipodi:insensitive="true">
    <path
       style="fill:#e5e5e5;fill-opacity:1;stroke:#000000;stroke-width:1;stroke-miterlimit:4;stroke-opacity:1;display:inline"
       d="m 0.83428551,-0.61753 147.83401449,180 0,19.83401 -147.83401449,0 z"
       id="rect3203-8-3"
       inkscape:connector-curvature="0"
       sodipodi:nodetypes="ccccc" />
  </g>
  <g
     inkscape:groupmode="layer"
     id="layer6"
     inkscape:label="perbend sinister"
     style="display:none"
     transform="translate(-0.33428551,1.11753)"
     sodipodi:insensitive="true">
    <path
       style="fill:#e5e5e5;fill-opacity:1;stroke:#000000;stroke-width:1;stroke-miterlimit:4;stroke-opacity:1;display:inline"
       d="M 148.6683,-0.6175272 0.83428551,179.38247 l 0,19.83401 147.83401449,0 z"
       id="rect3203-8-3-5"
       inkscape:connector-curvature="0"
       sodipodi:nodetypes="ccccc" />
  </g>
  <g
     inkscape:groupmode="layer"
     id="layer7"
     inkscape:label="perchevron"
     style="display:none"
     transform="translate(-0.33428551,1.11753)"
     sodipodi:insensitive="true">
    <path
       style="fill:#e5e5e5;fill-opacity:1;stroke:#000000;stroke-width:0.99783701;stroke-miterlimit:4;stroke-opacity:1;display:inline"
       d="m 2.0576517,177.62184 72.2752213,-87.254152 73.560947,87.254152 0,21.74801 -145.8361683,0 z"
       id="rect3203-8"
       inkscape:connector-curvature="0"
       sodipodi:nodetypes="cccccc" />
  </g>
  <g
     inkscape:groupmode="layer"
     id="layer8"
     inkscape:label="per cross"
     style="display:inline"
     transform="translate(-0.33428551,1.11753)"
     sodipodi:insensitive="true">
    <path
       style="fill:#e5e5e5;fill-opacity:1;stroke:#000000;stroke-width:1;stroke-miterlimit:4;stroke-opacity:1;stroke-dasharray:none;display:inline"
       d="m 0.852337,0.33022144 73.362961,0 0,89.32688856 -73.362961,0 z"
       id="rect2985-1-6"
       inkscape:connector-curvature="0" />
    <path
       style="fill:#e5e5e5;fill-opacity:1;stroke:#000000;stroke-width:1;stroke-miterlimit:4;stroke-opacity:1;stroke-dasharray:none;display:inline"
       d="m 74.470779,89.732422 73.292011,0 0,109.255948 -73.292011,0 z"
       id="rect2985-1-6-5"
       inkscape:connector-curvature="0" />
  </g>
  <g
     inkscape:groupmode="layer"
     id="layer9"
     inkscape:label="per fess"
     style="display:none"
     transform="translate(-0.33428551,1.11753)"
     sodipodi:insensitive="true">
    <path
       style="fill:#e5e5e5;fill-opacity:1;stroke:#000000;stroke-width:1;stroke-miterlimit:4;stroke-opacity:1"
       d="m 1.0184546,90.442528 147.8286554,0 0,108.994652 -147.8286554,0 z"
       id="rect3203"
       inkscape:connector-curvature="0" />
  </g>
  <g
     inkscape:groupmode="layer"
     id="layer10"
     inkscape:label="per saltire"
     style="display:none"
     transform="translate(-0.33428551,1.11753)"
     sodipodi:insensitive="true">
    <path
       style="fill:#e5e5e5;fill-opacity:1;stroke:#000000;stroke-width:1.00055182;stroke-miterlimit:4;stroke-opacity:1;display:inline"
       d="M 1.0160586,177.78737 73.986751,90.259328 149.0155,177.78737 l 0,19.83309 -147.9994414,0 z"
       id="rect3203-8-6"
       inkscape:connector-curvature="0"
       sodipodi:nodetypes="cccccc" />
    <path
       style="fill:#e5e5e5;fill-opacity:1;stroke:#000000;stroke-width:1.00941622;stroke-miterlimit:4;stroke-opacity:1;display:inline"
       d="m 74.030945,89.803522 74.980135,-87.9753378 -147.9905946,0 z"
       id="rect3203-8-6-1"
       inkscape:connector-curvature="0"
       sodipodi:nodetypes="cccc" />
  </g>
  <g
     inkscape:groupmode="layer"
     id="layer12"
     inkscape:label="ord_bend"
     style="display:none"
     sodipodi:insensitive="true">
    <path
       style="fill:#e5e5e5;fill-opacity:1;stroke:#000000;stroke-width:1;stroke-miterlimit:4;stroke-opacity:1;stroke-dasharray:none"
       d="m 0.9469011,26.309665 0,-23.8456128 19.9441069,0 126.266292,149.8644978 0,22.74564 0,23.73548 z"
       id="rect4245"
       inkscape:connector-curvature="0"
       sodipodi:nodetypes="ccccccc" />
  </g>
  <g
     inkscape:groupmode="layer"
     id="layer13"
     inkscape:label="ord_bend_sinister"
     style="display:none"
     sodipodi:insensitive="true">
    <path
       style="fill:#e5e5e5;fill-opacity:1;stroke:#000000;stroke-width:1;stroke-miterlimit:4;stroke-opacity:1;stroke-dasharray:none"
       d="m 147.1573,26.309665 0,-23.8456128 -19.94411,0 L 0.9469011,152.32855 l 0,22.74564 0,23.73548 z"
       id="rect4245-7"
       inkscape:connector-curvature="0"
       sodipodi:nodetypes="ccccccc" />
  </g>
  <g
     inkscape:groupmode="layer"
     id="layer14"
     inkscape:label="ord_chief"
     style="display:none"
     sodipodi:insensitive="true">
    <path
       style="fill:#e5e5e5;fill-opacity:1;stroke:#000000;stroke-width:0.99973065;stroke-miterlimit:4;stroke-opacity:1;stroke-dasharray:none"
       d="m 0.87349549,2.2167866 145.74153451,0 0,49.0002694 -145.74153451,0 z"
       id="rect4304"
       inkscape:connector-curvature="0" />
  </g>
  <g
     inkscape:groupmode="layer"
     id="layer16"
     inkscape:label="ord_canton"
     style="display:none"
     sodipodi:insensitive="true">
    <rect
       style="fill:#e5e5e5;fill-opacity:1;stroke:#000000;stroke-width:0.99569058;stroke-miterlimit:4;stroke-opacity:1;stroke-dasharray:none"
       id="rect4304-8"
       width="49.432335"
       height="49.004311"
       x="0.87147546"
       y="2.2147665" />
  </g>
  <g
     inkscape:groupmode="layer"
     id="layer17"
     inkscape:label="ord_chevron"
     style="display:none"
     sodipodi:insensitive="true">
    <path
       style="fill:#e5e5e5;fill-opacity:1;stroke:#000000;stroke-width:1;stroke-miterlimit:4;stroke-opacity:1;stroke-dasharray:none;display:inline"
       d="m 1.8097654,197.21792 0,-23.84561 0,-22 72.2460626,-85.694661 73.992292,87.559151 0,22.74564 0,23.73548 -74.09505,-87.23984 z"
       id="rect4245-4"
       inkscape:connector-curvature="0"
       sodipodi:nodetypes="ccccccccc" />
  </g>
  <g
     inkscape:groupmode="layer"
     id="layer18"
     inkscape:label="ord_cross"
     style="display:none"
     sodipodi:insensitive="true">
    <path
       style="fill:#e5e5e5;fill-opacity:1;stroke:#000000;stroke-width:1;stroke-miterlimit:4;stroke-opacity:1;stroke-dasharray:none;display:inline"
       d="m 1.3543694,109.70849 0.063232,-15.412349 0.063232,-14.89408 57.0332156,0 0,-78 30.885158,0 0,78 57.685713,0 -0.0632,15.41234 -0.0633,14.894089 -57.559213,0 0,90 -30.885158,0 0,-90 z"
       id="rect4245-8-3-1"
       inkscape:connector-curvature="0"
       sodipodi:nodetypes="ccccccccccccccc" />
  </g>
  <g
     inkscape:groupmode="layer"
     id="layer19"
     inkscape:label="ord_fess"
     style="display:none"
     sodipodi:insensitive="true">
    <path
       style="fill:#e5e5e5;fill-opacity:1;stroke:#000000;stroke-width:1;stroke-miterlimit:4;stroke-opacity:1;stroke-dasharray:none;display:inline"
       d="m 1.3543694,109.51724 0.06323,-15.412357 0.06323,-14.89408 57.0332146,0 30.885159,0 57.685717,0 -0.0632,15.41234 -0.0633,14.894097 -57.559217,0 -30.885159,0 z"
       id="rect4245-8-3-1-5"
       inkscape:connector-curvature="0"
       sodipodi:nodetypes="ccccccccccc" />
  </g>
  <g
     inkscape:groupmode="layer"
     id="layer11"
     inkscape:label="ord_pale"
     style="display:none"
     sodipodi:insensitive="true">
    <path
       style="fill:#e5e5e5;fill-opacity:1;stroke:#000000;stroke-width:1;stroke-miterlimit:4;stroke-opacity:1;stroke-dasharray:none;display:inline"
       d="m 58.540542,79.190134 0,-78.0000001 30.88516,0 0,78.0000001 0,30.306436 0,90 -30.88516,0 0,-90 z"
       id="rect4245-8-3-1-6"
       inkscape:connector-curvature="0"
       sodipodi:nodetypes="ccccccccc" />
  </g>
  <g
     inkscape:groupmode="layer"
     id="layer20"
     inkscape:label="ord_pall"
     style="display:none"
     sodipodi:insensitive="true">
    <path
       style="fill:#e5e5e5;fill-opacity:1;stroke:#000000;stroke-width:1;stroke-miterlimit:4;stroke-opacity:1;stroke-dasharray:none;display:inline"
       d="m 0.98300391,26.884647 0,-24.9146474 19.87342509,0 53.44258,63.6951174 53.442581,-63.6951174 20,0 0,23.6951184 -58.252539,69.569123 0.252538,104.737309 -30.88516,0 -0.252538,-104.737309 z"
       id="rect4245-8-3-1-6-5"
       inkscape:connector-curvature="0"
       sodipodi:nodetypes="cccccccccccc" />
  </g>
  <g
     inkscape:groupmode="layer"
     id="layer21"
     inkscape:label="ord_pile"
     style="display:none"
     sodipodi:insensitive="true">
    <path
       inkscape:connector-curvature="0"
       style="fill:#e5e5e5;fill-opacity:1;stroke:#000000;stroke-width:1;stroke-miterlimit:4;stroke-opacity:1;stroke-dasharray:none;display:inline"
       d="m 1.5952507,1.8061984 145.7412693,0 0,15.0267726 L 74.465885,164.83297 1.5952507,16.832971 z"
       id="rect4304-2"
       sodipodi:nodetypes="cccccc" />
  </g>
  <g
     inkscape:groupmode="layer"
     id="layer22"
     inkscape:label="ord_quarter"
     style="display:inline"
     sodipodi:insensitive="true">
    <path
       style="fill:#e5e5e5;fill-opacity:1;stroke:#000000;stroke-width:1;stroke-miterlimit:4;stroke-opacity:1;stroke-dasharray:none;display:inline"
       d="m 0.64174241,1.5310083 73.36296159,0 0,89.3268897 -73.36296159,0 z"
       id="rect2985-1-6-6"
       inkscape:connector-curvature="0" />
  </g>
  <g
     inkscape:groupmode="layer"
     id="layer23"
     inkscape:label="ord_saltire"
     style="display:none"
     sodipodi:insensitive="true">
    <path
       style="fill:#e5e5e5;fill-opacity:1;stroke:#000000;stroke-width:1;stroke-miterlimit:4;stroke-opacity:1;stroke-dasharray:none;display:inline"
       d="m 0.90877894,26.167162 0,-23.3334473 19.94410706,0 53.032315,62.7128493 52.779779,-62.7128493 20.5816,0 0,23.0738143 -53.412253,63.306044 53.284853,62.154667 0,47.52245 -72.918092,-86.02747 -72.2399696,86.02747 0,-47.52245 51.9152396,-62.378101 z"
       id="rect4245-0"
       inkscape:connector-curvature="0"
       sodipodi:nodetypes="ccccccccccccccc" />
  </g>
  <g
     inkscape:groupmode="layer"
     id="layer28"
     inkscape:label="ord_ bordure"
     style="display:none"
     sodipodi:insensitive="true">
    <path
       style="fill:#e5e5e5;fill-opacity:1;stroke:#464646;stroke-width:1;stroke-miterlimit:4;stroke-opacity:1;display:inline"
       d="m 1.25,2.59375 c 0,0 0.017277,105.49139 0,150 -0.011305,29.12235 67.377653,27 73,48 6.372347,-21 73.0104,-18.87765 73,-48 -0.0173,-48.25861 0,-150 0,-150 l -146,0 z M 14,14.25 l 120.5,0 c 0,0 -0.0143,87.93696 0,129.65625 0.009,25.1761 -54.991267,23.34561 -60.25,41.5 C 69.610199,167.25186 13.990671,169.08235 14,143.90625 14.01426,105.42881 14,14.25 14,14.25 z"
       id="rect3073-3"
       inkscape:connector-curvature="0" />
  </g>
  <g
     inkscape:groupmode="layer"
     id="layer29"
     inkscape:label="ord_orle"
     style="display:none">
    <path
       style="fill:#e5e5e5;fill-opacity:1;stroke:#464646;stroke-width:0.86899966;stroke-miterlimit:4;stroke-opacity:1;display:inline"
       d="m 12.328681,13.199769 c 0,0 0.01472,93.538201 0,133.003561 -0.0096,25.82251 57.382973,23.94064 62.171311,42.56114 5.427085,-18.6205 62.180178,-16.73863 62.171328,-42.56114 -0.0148,-42.79045 0,-133.003561 0,-133.003561 l -124.342639,0 z m 10.858688,10.335486 102.625251,0 c 0,0 -0.0122,77.972855 0,114.964955 0.007,22.3234 -46.833965,20.70033 -51.312628,36.79765 -3.951541,-16.09732 -51.320569,-14.47425 -51.312623,-36.79765 0.01214,-34.11758 0,-114.964955 0,-114.964955 z"
       id="rect3073-3-9"
       inkscape:connector-curvature="0" />
  </g>
  <g
     inkscape:groupmode="layer"
     id="layer3"
     inkscape:label="outline"
     sodipodi:insensitive="true"
     transform="translate(-0.33428551,1.11753)"
     style="display:none">
    <rect
       style="fill:none;stroke:#000000;stroke-width:2.98778677;stroke-miterlimit:4;stroke-opacity:1;stroke-dasharray:none"
       id="rect2985-2"
       width="146.01221"
       height="197.22969"
       x="1.9290758"
       y="1.2649534" />
  </g>
  <g
     inkscape:groupmode="layer"
     id="layer24"
     inkscape:label="shield grad"
     sodipodi:insensitive="true"
     style="display:none">
    <g
       transform="matrix(0.25441426,0,0,0.26209881,-0.79169767,-8.823812)"
       id="Layer_2">
      <g
         style="opacity:0.3"
         id="shield_1_">
        <linearGradient
           id="linearGradient3026"
           gradientUnits="userSpaceOnUse"
           x1="4.7540998"
           y1="419.42209"
           x2="590.41333"
           y2="419.42209">
          <stop
             offset="0"
             style="stop-color:#131012"
             id="stop3028" />
          <stop
             offset="0.3257"
             style="stop-color:#CCCCCC"
             id="stop3030" />
          <stop
             offset="0.4999"
             style="stop-color:#FFFFFF"
             id="stop3032" />
          <stop
             offset="0.6855"
             style="stop-color:#CCCCCC"
             id="stop3034" />
          <stop
             offset="1"
             style="stop-color:#333333"
             id="stop3036" />
        </linearGradient>
        <path
           style="fill:url(#path100_2_)"
           inkscape:connector-curvature="0"
           id="path100_1_"
           d="m 590.409,576.058 c 0,84.418 -275.578,181.445 -293.602,224.899 C 274.77,759.752 4.754,655.201 4.754,576.058 c 0,-42.213 0,-538.172 0,-538.172 h 585.659 c -0.004,0 -0.004,495.963 -0.004,538.172 z" />
      </g>
    </g>
  </g>
  <g
     inkscape:groupmode="layer"
     id="layer25"
     inkscape:label="shield outline"
     style="display:none"
     sodipodi:insensitive="true">
    <g
       transform="matrix(0.93046778,0,0,0.96332434,-0.06745105,0.6468628)"
       id="shield"
       style="fill:none;stroke:#383838;stroke-width:3;stroke-miterlimit:4;stroke-opacity:1;stroke-dasharray:none">
      <path
         style="fill:none;stroke:#383838;stroke-width:3;stroke-miterlimit:4;stroke-opacity:1;stroke-dasharray:none"
         inkscape:connector-curvature="0"
         d="m 158.367,145.863 c 0,22.642 -73.914,48.666 -78.748,60.321 C 73.708,195.132 1.286,167.09 1.286,145.863 c 0,-11.322 0,-144.345 0,-144.345 h 157.082 c -0.001,0 -0.001,133.024 -0.001,144.345 z"
         id="path100" />
    </g>
  </g>
  <g
     inkscape:groupmode="layer"
     id="layer27"
     inkscape:label="shield outline 2"
     style="display:none"
     sodipodi:insensitive="true">
    <path
       style="fill:#e5e5e5;fill-opacity:1;stroke:#464646;stroke-width:1;stroke-miterlimit:4;stroke-opacity:1"
       d="m 1.5,2.1060638 146,0 c 0,0 -0.0173,101.7413862 0,149.9999962 0.0104,29.12235 -66.627653,27 -73,48 -5.622347,-21 -73.0113045,-18.87765 -73,-48 0.017277,-44.50861 0,-149.9999962 0,-149.9999962 z"
       id="rect3073"
       inkscape:connector-curvature="0"
       sodipodi:nodetypes="ccscsc" />
  </g>
  <g
     id="embattled"
     display="none"
     style="display:none"
     transform="translate(-0.33428551,1.11753)">
    <path
       fill="#DIV#"
       d="m 158.523,145.881 c 0,22.642 -73.914,48.666 -78.748,60.321 C 73.864,195.15 1.442,167.108 1.442,145.881 c 0,-11.322 0,-46.345 0,-46.345 h 12 v -12 h 12.091 v 12 h 12.091 v -12 h 12.091 v 12 h 12.091 v -12 h 12.091 v 12 h 12.091 v -12 H 98.08 v 12 h 12.09 v -12 h 12.092 v 12 h 12.09 v -12 h 12.092 v 12 h 12.081 c -0.002,0 -0.002,35.024 -0.002,46.345 z"
       id="path43"
       inkscape:connector-curvature="0" />
  </g>
  <g
     id="dancetty"
     display="none"
     style="display:none"
     transform="translate(-0.33428551,1.11753)">
    <path
       display="inline"
       fill="#DIV#"
       d="m 60.639,19.035 36.061,40.75 -35.938,40.75 36.067,40.75 -35.936,40.75 c 0,0 19.049,19.279 19.049,23.49 5.911,-11.052 78.832,-37.917 78.832,-59.144 0,-11.322 0,-144.345 0,-144.345 H 79.608 L 60.639,19.035 z"
       id="path50"
       inkscape:connector-curvature="0"
       style="display:inline" />
  </g>
</svg>
